<svg id="Laag_1" data-name="Laag 1" xmlns="http://www.w3.org/2000/svg" viewBox="0 0 77.83 280.31"><defs><style>.cls-1{fill:#f39c83;}.cls-2{fill:#fff;}.cls-3{fill:#f94709;}.cls-4{fill:#2d2d2d;}.cls-5{fill:#f3cca7;}.cls-6{fill:#d1b085;}.cls-7{fill:#fd410f;}.cls-8{fill:#f49d70;}.cls-9{fill:#f89c78;}.cls-10{fill:#fffdff;}.cls-11{fill:#b36859;}.cls-12{fill:#e97c57;}.cls-13{fill:#73382c;}.cls-14{fill:#4c1a08;}.cls-15{fill:#e4ef00;}</style></defs><title>poppetjestil</title><polygon class="cls-1" points="32.92 229.81 16.08 229.81 16.08 206.56 18.75 204.81 18.75 190.06 16.08 189.23 16.08 181.56 54.17 181.56 54.17 197.48 52.08 197.98 52.08 229.4 35.58 229.4 35.58 205.69 37 205.15 37 192.73 35.13 192.73 35.13 197.81 33.5 200.15 32.92 229.81"/><polygon class="cls-2" points="16.08 229.81 16.08 232.31 33 232.31 32.92 229.81 16.08 229.81"/><polygon class="cls-2" points="35.58 229.4 35.58 232.31 52.25 232.31 52.08 229.4 35.58 229.4"/><rect class="cls-3" x="16.08" y="232.31" width="16.92" height="7"/><polyline class="cls-3" points="35.58 232.31 35.58 239.31 52.25 239.31 52.25 232.31"/><polygon class="cls-2" points="16.08 239.31 16.08 245.48 21.83 261.48 29.83 261.48 32.17 259.06 32.17 241.65 33 239.31 16.08 239.31"/><polygon class="cls-2" points="35.58 239.31 35.58 249.56 38 251.23 38 258.4 42.17 261.48 48.08 261.48 50.42 257.31 52.25 239.31 35.58 239.31"/><polygon class="cls-4" points="38 258.4 36.42 260.98 36.42 264.65 42.92 273.4 68 273.4 72.08 271.56 72.08 267.9 70 265.48 62.08 265.4 57 267.65 53.08 267.56 51.5 264.73 53.33 262.81 56.25 260.9 56.08 258.4 50.42 257.31 48.08 261.48 42.17 261.48 38 258.4"/><polygon class="cls-4" points="21.83 261.48 21.83 269.44 26.67 273.4 30.29 273.4 32.04 271.56 41.59 271.62 36.42 264.65 36.42 263.56 34.29 267.44 27.54 267.44 26.17 265.35 28.29 262.94 31.71 262.81 32.17 259.06 29.83 261.48 21.83 261.48"/><polygon class="cls-5" points="72.08 269.69 75.29 270.69 75.29 274.69 72.08 275.44 72.08 276.44 68.29 276.44 67.54 278.56 64.04 278.56 64.04 275.94 59.29 275.81 58.42 278.56 56.29 278.56 56.29 275.81 46.17 275.44 46.17 277.94 41.59 277.81 41.59 275.9 39.17 275.4 38.17 271.6 41.59 271.62 42.92 273.4 68 273.4 72.08 271.56 72.08 269.69"/><polygon class="cls-6" points="41.59 276.98 46.17 276.98 46.17 277.94 41.59 277.81 41.59 276.98"/><polygon class="cls-6" points="56.29 278.56 56.29 277.94 58.62 277.94 58.42 278.56 56.29 278.56"/><polygon class="cls-6" points="64.04 278.56 64.04 277.94 67.76 277.94 67.54 278.56 64.04 278.56"/><polygon class="cls-5" points="21.83 269.44 20.25 270.06 20.25 271.98 21.83 274.13 23.75 275.4 25.67 277.46 27.83 278.25 28.58 279.23 28.58 280.31 33 280.31 33.42 277.94 35.92 277.94 36.83 280.31 38.58 280.31 38.58 277.46 39.17 275.4 38.17 271.6 32.04 271.56 30.29 273.4 26.67 273.4 21.83 269.44"/><polygon class="cls-6" points="28.58 279.63 33.12 279.63 33 280.31 28.58 280.31 28.58 279.63"/><polygon class="cls-6" points="38.58 280.31 36.83 280.31 36.57 279.63 38.58 279.63 38.58 280.31"/><polygon class="cls-2" points="35.43 265.35 33 263.94 31.71 262.81 28.29 262.94 26.17 265.35 27.54 267.44 34.29 267.44 35.43 265.35"/><polygon class="cls-2" points="53.08 267.56 51.5 264.73 53.33 262.81 56.25 260.9 59.79 262.19 62.08 265.4 57 267.65 53.08 267.56"/><polygon class="cls-4" points="40.17 181.56 40.17 176.31 38.83 178.15 38.83 181.56 14.33 181.56 14.33 177.9 12.08 176.31 12.08 158.56 14 156.48 14.08 149.56 14.17 141.48 19.08 141.48 21.75 143.56 31.92 143.48 35.13 145.65 45.83 145.48 48.33 143.65 51.58 143.48 54.17 141.9 56.17 141.48 56.17 156.15 57.92 157.81 57.92 173.56 56.25 175.73 56.08 181.56 40.17 181.56"/><polygon class="cls-1" points="38.83 181.56 40.17 181.56 40.17 176.31 38.83 178.15 38.83 181.56"/><polygon class="cls-7" points="56.17 141.48 55.17 133.73 52.83 133.73 52.83 125.06 51.17 122.56 51.17 108.56 53.67 104.9 54.83 99.9 54.83 95.9 56.17 98.23 60.83 96.73 63.83 94.56 62.67 88.06 57.92 77.06 53.33 68.4 46.67 63.73 42.33 62.06 42.33 69.73 39.5 72.73 30 73.06 25 69.56 21.67 64.23 20.17 61.23 12.83 65.06 7.83 69.73 5.83 74.06 3.83 80.06 1.67 86.9 1.67 96.56 5.5 97.73 9.17 99.73 12.08 101.35 14.33 103.4 14.83 107.73 14.67 113.06 14.83 121.23 16.08 126.23 16.08 131.23 16.08 136.9 14.17 141.48 19.08 141.48 21.75 143.56 31.92 143.48 35.13 145.65 45.83 145.48 48.33 143.65 51.58 143.48 56.17 141.48"/><polygon class="cls-2" points="2.12 96.7 2.12 101.56 5.73 101.94 9.1 103.06 12.42 105.44 13.6 107.19 14.73 106.8 14.33 103.4 12.08 101.35 5.5 97.73 2.12 96.7"/><polygon class="cls-2" points="63.83 94.56 63.83 99.48 63.42 101.48 56.58 101.94 55.25 101.4 55.52 97.1 56.17 98.23 60.83 96.73 63.83 94.56"/><polygon class="cls-8" points="2.12 101.56 2.12 115.4 0 117.23 0 141.48 2.12 144.23 1.67 156.73 3.17 160.06 5 163.06 7.5 165.56 9.5 165.56 10.33 161.52 10.33 157.9 12.08 157.23 12.08 150.73 8.43 149.9 8.43 138.23 10.5 136.56 10.17 117.56 12.08 115.23 12.08 110.73 14.73 109.9 14.73 106.8 13.6 107.19 12.42 105.44 9.1 103.06 5.73 101.94 2.12 101.56"/><polygon class="cls-8" points="52.1 107.19 55.25 108.73 55.25 115.9 56.67 120.06 57.92 123.4 57.92 125.56 59.54 129.73 61.83 135.23 63.17 137.73 65.5 141.48 67 144.73 67 148.06 65.33 149.9 65 153.73 65 157.23 67 159.06 69 161.52 70.83 162.9 73.33 164.4 75.5 164.4 76.33 161.52 76.33 159.4 77.83 157.56 77.83 154.4 77.83 151.4 74.17 149.9 74.33 145.65 73 141.48 71.67 137.4 71.67 133.56 70.33 130.23 69 124.73 68.5 120.73 67.17 118.06 64.97 113.06 63.17 108.06 63.42 101.48 56.58 101.94 55.25 101.4 53.67 104.9 52.1 107.19"/><path class="cls-9" d="M879.33,248.67,881.5,253l2.33,3.67h8l.84-9.34h-1.54l-.5-1.45.62-1.25a13.2,13.2,0,0,1,2.25-.63,12.67,12.67,0,0,0,2.67-1.5l3.58-3.62,2.13-2.5L903.5,233l1.5-2.37.94-2,.69-4.13v-7.62L905,215.25v-3.87l-2.12-1.13-.13-3.87-2.25-2.25h-2.75l-2.12,1.37-15.25.25-2-1.62h-3.25L874,207.25l-1.12,3.5-2.13,4-.87,3.75-1.32,1.25-2.31.25-2.25-.75h-1.74l-1.06,2.13,1.06,4,1,3,1.38,1.12.75,1.63,1.12.25.38,2.25.62,1.5,2.13,2.87,2.5,2.63,2.5,1.87,1.87.88,2.13,1.25.5,2.12Z" transform="translate(-853.83 -187.44)"/><polygon class="cls-10" points="31.92 45.15 31.92 48.03 33.58 49.65 34.92 49.65 41.42 49.65 42.33 48.03 43.67 47.4 43.67 45.71 42.92 45.15 31.92 45.15"/><polygon class="cls-11" points="32.42 45.15 31.25 44.31 30.08 45.15 30.08 46.98 30.83 48.4 32.75 50.81 36.25 51.48 40 51.48 42.92 50.4 44.08 49.06 45.75 46.56 45.75 44.65 44.25 44.31 42.92 45.15 43.67 45.71 43.67 47.4 42.33 48.03 41.42 49.65 33.58 49.65 31.92 48.03 31.92 45.15 32.42 45.15"/><polygon class="cls-12" points="36.75 37.4 41.83 37.4 41.83 38.48 40.83 39.48 39.29 39.48 37.42 39.48 36.75 37.4"/><polygon class="cls-13" points="27 37.4 30.08 37.4 30.08 31.73 29 30.73 26.08 30.73 24.83 31.9 24.83 34.98 27 37.4"/><polygon class="cls-13" points="46.25 37.4 49.33 37.4 49.33 31.73 48.25 30.73 45.33 30.73 44.08 31.9 44.08 34.98 46.25 37.4"/><polygon class="cls-14" points="24.83 28.31 25.42 28.81 31.25 28.56 31.92 27.81 31.92 26.15 30.58 25.48 25.25 25.48 24.83 26.06 24.83 28.31"/><polygon class="cls-14" points="44.73 28.86 44.08 28.11 44.08 25.76 44.73 25.43 48.79 25.43 49.33 26.42 49.33 28.46 48.79 28.86 44.73 28.86"/><polygon class="cls-15" points="10.73 32 10.73 27.15 9.17 25.94 9.17 11.81 11.1 10.81 11.1 8.69 12.98 7.63 13.29 6.63 16.17 6.13 16.17 3.81 19.1 3.81 19.6 4.44 21.92 4.44 22.35 3.19 25.04 3.19 25.67 1.81 34.1 1.44 34.6 0 41.35 0 41.83 0.81 41.83 2.63 42.42 3.13 50.67 3.13 51.17 4.75 50.79 8.31 48.48 8.88 48.54 11.13 50.54 11.94 51.17 12.75 51.17 16.69 53.1 17.25 52.48 28.25 52.22 28.86 51.17 27.81 51.17 23.94 49.04 22.81 48.92 18.94 46.67 16.69 43.92 16.69 41.79 18.06 26.54 18.31 24.54 16.69 21.29 16.69 20.17 19.81 19.04 23.31 16.92 27.31 16.04 31.06 14.73 32.31 12.42 32.56 10.73 32"/><polygon class="cls-7" points="20.17 61.23 21.17 59.9 23.67 59.9 25.5 61.23 27.67 65.56 30 69.23 38 69.23 38.83 59.9 42.33 61.23 42.33 63.4 42.33 69.73 39.5 72.73 30 73.06 25 69.56 20.17 61.23"/><polygon class="cls-7" points="20.17 61.23 21.67 64.23 25 69.56 20.17 61.23"/><polygon class="cls-2" points="28.33 161.52 21.67 161.52 20.33 163.31 20.33 168.06 21.33 169.48 26.33 169.48 26.92 172.48 25.75 174.23 22.08 173.73 21.33 173.15 20.58 173.65 20.17 174.31 21.08 175.56 22.42 176.31 26.83 176.31 28.33 175.06 28.75 173.15 28.75 161.52 28.33 161.52"/><polygon class="cls-4" points="23.25 163.34 22.44 164.12 22.44 166.91 23.25 167.78 26.54 167.78 26.54 163.34 23.25 163.34"/><polygon class="cls-2" points="26.54 70.64 25 84.56 24.49 94.56 24.49 107.19 25 121.56 25 143.54 31.92 143.48 31.92 120.56 30.8 107.19 30.8 92.9 31.14 82.9 31.92 73 30 73.06 26.54 70.64"/><polygon class="cls-2" points="37.91 72.78 37.91 83.4 37.91 91.4 38.83 107.09 39.42 116.31 40.17 124.56 40.17 138.23 39.5 145.65 44.92 145.49 45.75 137.81 45.75 123.31 45.04 115.56 43.67 104.19 42.83 90.31 42.33 82.06 41.83 70.26 39.5 72.73 37.91 72.78"/><polygon class="cls-2" points="23.88 67.77 19.33 83.06 19.33 93.73 19.33 113.4 20.17 127.4 21.75 143.56 19.08 141.48 15.67 141.48 16.08 126.23 14.83 121.23 14.73 106.8 13 96.7 13.83 82.56 20.9 62.7 23.88 67.77"/><polygon class="cls-2" points="51.58 143.48 49.33 103.13 49.33 86.56 46.7 69.23 42.33 63.4 42.33 62.06 46.67 63.73 50.59 66.48 53.1 78.73 54.5 89.73 54.83 99.9 53.1 105.72 51.17 108.56 52.83 125.06 52.83 133.73 55.17 133.73 55.17 141.92 51.58 143.48"/></svg>